<?xml version="1.0" encoding="UTF-8"?>
<svg version="1.1" xmlns="http://www.w3.org/2000/svg" width="64" height="64">
<path d="M0 0 C16.17 0 32.34 0 49 0 C49 21.12 49 42.24 49 64 C32.83 64 16.66 64 0 64 C0 42.88 0 21.76 0 0 Z " fill="#F4A822" transform="translate(7,0)"/>
<path d="M0 0 C5.61 0 11.22 0 17 0 C17 5.28 17 10.56 17 16 C22.28 16 27.56 16 33 16 C33 10.72 33 5.44 33 0 C38.28 0 43.56 0 49 0 C49 10.56 49 21.12 49 32 C32.83 32 16.66 32 0 32 C0 21.44 0 10.88 0 0 Z " fill="#65C44C" transform="translate(7,32)"/>
<path d="M0 0 C16.17 0 32.34 0 49 0 C49 2.64 49 5.28 49 8 C32.83 8 16.66 8 0 8 C0 5.36 0 2.72 0 0 Z " fill="#030100" transform="translate(7,0)"/>
<path d="M0 0 C5.61 0 11.22 0 17 0 C17 5.28 17 10.56 17 16 C11.39 16 5.78 16 0 16 C0 10.72 0 5.44 0 0 Z " fill="#000000" transform="translate(7,32)"/>
<path d="M0 0 C5.28 0 10.56 0 16 0 C16 5.28 16 10.56 16 16 C10.72 16 5.44 16 0 16 C0 10.72 0 5.44 0 0 Z " fill="#000000" transform="translate(40,32)"/>
<path d="M0 0 C5.61 0 11.22 0 17 0 C17 2.64 17 5.28 17 8 C11.39 8 5.78 8 0 8 C0 5.36 0 2.72 0 0 Z " fill="#000000" transform="translate(7,56)"/>
<path d="M0 0 C5.61 0 11.22 0 17 0 C17 2.64 17 5.28 17 8 C11.39 8 5.78 8 0 8 C0 5.36 0 2.72 0 0 Z " fill="#3C8845" transform="translate(7,48)"/>
<path d="M0 0 C5.61 0 11.22 0 17 0 C17 2.64 17 5.28 17 8 C11.39 8 5.78 8 0 8 C0 5.36 0 2.72 0 0 Z " fill="#F16221" transform="translate(7,24)"/>
<path d="M0 0 C5.61 0 11.22 0 17 0 C17 2.64 17 5.28 17 8 C11.39 8 5.78 8 0 8 C0 5.36 0 2.72 0 0 Z " fill="#34B32B" transform="translate(7,16)"/>
<path d="M0 0 C5.28 0 10.56 0 16 0 C16 2.64 16 5.28 16 8 C10.72 8 5.44 8 0 8 C0 5.36 0 2.72 0 0 Z " fill="#020100" transform="translate(40,56)"/>
<path d="M0 0 C5.28 0 10.56 0 16 0 C16 2.64 16 5.28 16 8 C10.72 8 5.44 8 0 8 C0 5.36 0 2.72 0 0 Z " fill="#F4A721" transform="translate(24,56)"/>
<path d="M0 0 C5.28 0 10.56 0 16 0 C16 2.64 16 5.28 16 8 C10.72 8 5.44 8 0 8 C0 5.36 0 2.72 0 0 Z " fill="#F15F22" transform="translate(40,24)"/>
<path d="M0 0 C2.64 0 5.28 0 8 0 C8 5.28 8 10.56 8 16 C5.36 16 2.72 16 0 16 C0 10.72 0 5.44 0 0 Z " fill="#F79422" transform="translate(24,24)"/>
<path d="M0 0 C5.28 0 10.56 0 16 0 C16 2.64 16 5.28 16 8 C10.72 8 5.44 8 0 8 C0 5.36 0 2.72 0 0 Z " fill="#68C247" transform="translate(40,16)"/>
<path d="M0 0 C16.17 0 32.34 0 49 0 C49 0.33 49 0.66 49 1 C35.8 1 22.6 1 9 1 C9 3.31 9 5.62 9 8 C6.03 8 3.06 8 0 8 C0 5.36 0 2.72 0 0 Z " fill="#E4761E" transform="translate(7,8)"/>
<path d="M0 0 C5.28 0 10.56 0 16 0 C16 2.31 16 4.62 16 7 C10.72 7 5.44 7 0 7 C0 4.69 0 2.38 0 0 Z " fill="#F89422" transform="translate(40,9)"/>
<path d="M0 0 C5.28 0 10.56 0 16 0 C16 2.31 16 4.62 16 7 C10.72 7 5.44 7 0 7 C0 4.69 0 2.38 0 0 Z " fill="#F79422" transform="translate(16,9)"/>
<path d="M0 0 C5.61 0 11.22 0 17 0 C17 5.28 17 10.56 17 16 C11.39 16 5.78 16 0 16 C0 15.67 0 15.34 0 15 C4.62 15 9.24 15 14 15 C14 11.04 14 7.08 14 3 C9.38 3 4.76 3 0 3 C0 2.01 0 1.02 0 0 Z " fill="#261805" transform="translate(7,32)"/>
<path d="M0 0 C5.28 0 10.56 0 16 0 C16 0.99 16 1.98 16 3 C11.38 3 6.76 3 2 3 C2 6.96 2 10.92 2 15 C6.62 15 11.24 15 16 15 C16 15.33 16 15.66 16 16 C10.72 16 5.44 16 0 16 C0 10.72 0 5.44 0 0 Z " fill="#1C1205" transform="translate(40,32)"/>
<path d="M0 0 C2.64 0 5.28 0 8 0 C8 2.64 8 5.28 8 8 C5.36 8 2.72 8 0 8 C0 5.36 0 2.72 0 0 Z " fill="#F89522" transform="translate(24,56)"/>
<path d="M0 0 C2.64 0 5.28 0 8 0 C8 2.64 8 5.28 8 8 C5.36 8 2.72 8 0 8 C0 5.36 0 2.72 0 0 Z " fill="#3D8847" transform="translate(48,48)"/>
<path d="M0 0 C2.64 0 5.28 0 8 0 C8 2.64 8 5.28 8 8 C5.36 8 2.72 8 0 8 C0 5.36 0 2.72 0 0 Z " fill="#2CB32C" transform="translate(16,48)"/>
<path d="M0 0 C0.33 0 0.66 0 1 0 C1 21.12 1 42.24 1 64 C0.67 64 0.34 64 0 64 C0 42.88 0 21.76 0 0 Z " fill="#493F18" transform="translate(57,0)"/>
<path d="M0 0 C0.33 0 0.66 0 1 0 C1 21.12 1 42.24 1 64 C0.67 64 0.34 64 0 64 C0 42.88 0 21.76 0 0 Z " fill="#435B00" transform="translate(5,0)"/>
<path d="M0 0 C2.97 0 5.94 0 9 0 C9 2.31 9 4.62 9 7 C6.03 7 3.06 7 0 7 C0 4.69 0 2.38 0 0 Z " fill="#ED2F1C" transform="translate(7,25)"/>
<path d="M0 0 C2.64 0 5.28 0 8 0 C8 2.31 8 4.62 8 7 C5.36 7 2.72 7 0 7 C0 4.69 0 2.38 0 0 Z " fill="#F02E1D" transform="translate(48,25)"/>
<path d="M0 0 C2.64 0 5.28 0 8 0 C8 2.31 8 4.62 8 7 C5.36 7 2.72 7 0 7 C0 4.69 0 2.38 0 0 Z " fill="#1FB82C" transform="translate(48,17)"/>
<path d="M0 0 C0.99 0 1.98 0 3 0 C3 2.64 3 5.28 3 8 C2.01 8 1.02 8 0 8 C0 5.36 0 2.72 0 0 Z " fill="#2B1702" transform="translate(21,56)"/>
<path d="M0 0 C1.98 0 3.96 0 6 0 C6 1.32 6 2.64 6 4 C4.02 4 2.04 4 0 4 C0 2.68 0 1.36 0 0 Z " fill="#2BB42B" transform="translate(48,19)"/>
</svg>
